{
  "accessors": [
    {
      "bufferView": 2,
      "componentType": 5126,
      "count": 3015,
      "max": [
        21.092609405517578,
        29.563610076904297,
        56.167655944824219
      ],
      "min": [
        -21.092609405517578,
        -30.003715515136719,
        -8.4048671722412109
      ],
      "type": "VEC3"
    },
    {
      "bufferView": 2,
      "byteOffset": 36180,
      "componentType": 5126,
      "count": 3015,
      "max": [
        0.99875140190124512,
        0.99983978271484375,
        0.99955010414123535
      ],
      "min": [
        -0.99875146150588989,
        -0.99998199939727783,
        -0.99962997436523438
      ],
      "type": "VEC3"
    },
    {
      "bufferView": 1,
      "componentType": 5126,
      "count": 3015,
      "max": [
        0,
        0
      ],
      "min": [
        0,
        0
      ],
      "type": "VEC2"
    },
    {
      "bufferView": 0,
      "componentType": 5125,
      "count": 16464,
      "max": [
        3014
      ],
      "min": [
        0
      ],
      "type": "SCALAR"
    },
    {
      "bufferView": 2,
      "byteOffset": 72360,
      "componentType": 5126,
      "count": 2831,
      "max": [
        21.176763534545898,
        22.576469421386719,
        49.317085266113281
      ],
      "min": [
        -21.176763534545898,
        -28.442941665649414,
        -8.5071001052856445
      ],
      "type": "VEC3"
    },
    {
      "bufferView": 2,
      "byteOffset": 106332,
      "componentType": 5126,
      "count": 2831,
      "max": [
        0.99837768077850342,
        0.99949544668197632,
        0.90761744976043701
      ],
      "min": [
        -0.99837768077850342,
        -0.99948596954345703,
        -0.99952733516693115
      ],
      "type": "VEC3"
    },
    {
      "bufferView": 1,
      "byteOffset": 24120,
      "componentType": 5126,
      "count": 2831,
      "max": [
        0,
        0
      ],
      "min": [
        0,
        0
      ],
      "type": "VEC2"
    },
    {
      "bufferView": 0,
      "byteOffset": 65856,
      "componentType": 5125,
      "count": 5886,
      "max": [
        2830
      ],
      "min": [
        0
      ],
      "type": "SCALAR"
    },
    {
      "bufferView": 2,
      "byteOffset": 140304,
      "componentType": 5126,
      "count": 1867,
      "max": [
        20.568508148193359,
        29.579444885253906,
        56.186740875244141
      ],
      "min": [
        -20.568508148193359,
        -25.125394821166992,
        -8.4301586151123047
      ],
      "type": "VEC3"
    },
    {
      "bufferView": 2,
      "byteOffset": 162708,
      "componentType": 5126,
      "count": 1867,
      "max": [
        1,
        0.99986505508422852,
        0.99954342842102051
      ],
      "min": [
        -1,
        -0.94138211011886597,
        -0.99903041124343872
      ],
      "type": "VEC3"
    },
    {
      "bufferView": 1,
      "byteOffset": 46768,
      "componentType": 5126,
      "count": 1867,
      "max": [
        0,
        0
      ],
      "min": [
        0,
        0
      ],
      "type": "VEC2"
    },
    {
      "bufferView": 0,
      "byteOffset": 89400,
      "componentType": 5125,
      "count": 3576,
      "max": [
        1866
      ],
      "min": [
        0
      ],
      "type": "SCALAR"
    },
    {
      "bufferView": 2,
      "byteOffset": 185112,
      "componentType": 5126,
      "count": 597,
      "max": [
        15.502719879150391,
        0.29171153903007507,
        56.145999908447266
      ],
      "min": [
        -15.502719879150391,
        -30.025484085083008,
        -8.4301586151123047
      ],
      "type": "VEC3"
    },
    {
      "bufferView": 2,
      "byteOffset": 192276,
      "componentType": 5126,
      "count": 597,
      "max": [
        1,
        0.94104105234146118,
        0.99816340208053589
      ],
      "min": [
        -1,
        -0.99996167421340942,
        -0.95174306631088257
      ],
      "type": "VEC3"
    },
    {
      "bufferView": 1,
      "byteOffset": 61704,
      "componentType": 5126,
      "count": 597,
      "max": [
        0,
        0
      ],
      "min": [
        0,
        0
      ],
      "type": "VEC2"
    },
    {
      "bufferView": 0,
      "byteOffset": 103704,
      "componentType": 5125,
      "count": 1224,
      "max": [
        596
      ],
      "min": [
        0
      ],
      "type": "SCALAR"
    }
  ],
  "asset": {
    "extras": {
      "author": "VAA (https://sketchfab.com/Epidural)",
      "license": "CC-BY-4.0 (http://creativecommons.org/licenses/by/4.0/)",
      "source": "https://sketchfab.com/3d-models/head-drawing-foundation-746f57f1ef664ecbbd2d3e69b2ca32c7",
      "title": "Head Drawing Foundation"
    },
    "generator": "Sketchfab-8.51.0",
    "version": "2.0"
  },
  "bufferViews": [
    {
      "buffer": 0,
      "byteLength": 108600,
      "byteOffset": 0,
      "name": "floatBufferViews",
      "target": 34963
    },
    {
      "buffer": 0,
      "byteLength": 66480,
      "byteOffset": 108600,
      "byteStride": 8,
      "name": "floatBufferViews",
      "target": 34962
    },
    {
      "buffer": 0,
      "byteLength": 199440,
      "byteOffset": 175080,
      "byteStride": 12,
      "name": "floatBufferViews",
      "target": 34962
    }
  ],
  "buffers": [
    {
      "byteLength": 374520,
      "uri": "scene.bin"
    }
  ],
  "materials": [
    {
      "doubleSided": true,
      "emissiveFactor": [
        0,
        0,
        0
      ],
      "name": "Base",
      "pbrMetallicRoughness": {
        "baseColorFactor": [
          0.58823499999999995,
          0.58823499999999995,
          0.58823499999999995,
          1
        ],
        "metallicFactor": 0.68876961619999999,
        "roughnessFactor": 0.89297135959999996
      }
    },
    {
      "doubleSided": true,
      "emissiveFactor": [
        0,
        0,
        0
      ],
      "name": "Black",
      "pbrMetallicRoughness": {
        "baseColorFactor": [
          0.048451372139936083,
          0.048451372139936083,
          0.048451372139936083,
          1
        ],
        "metallicFactor": 0,
        "roughnessFactor": 0.89297135959999996
      }
    },
    {
      "doubleSided": true,
      "emissiveFactor": [
        0,
        0,
        0
      ],
      "name": "material",
      "pbrMetallicRoughness": {
        "baseColorFactor": [
          0.47230732040000001,
          0.0042978282999999997,
          0.0042978282999999997,
          1
        ],
        "metallicFactor": 0,
        "roughnessFactor": 0.89297135959999996
      }
    }
  ],
  "meshes": [
    {
      "name": "default_Base_0",
      "primitives": [
        {
          "attributes": {
            "NORMAL": 1,
            "POSITION": 0,
            "TEXCOORD_0": 2
          },
          "indices": 3,
          "material": 0,
          "mode": 4
        }
      ]
    },
    {
      "name": "default001_Black_0",
      "primitives": [
        {
          "attributes": {
            "NORMAL": 5,
            "POSITION": 4,
            "TEXCOORD_0": 6
          },
          "indices": 7,
          "material": 1,
          "mode": 4
        }
      ]
    },
    {
      "name": "default002_Black_0",
      "primitives": [
        {
          "attributes": {
            "NORMAL": 9,
            "POSITION": 8,
            "TEXCOORD_0": 10
          },
          "indices": 11,
          "material": 1,
          "mode": 4
        }
      ]
    },
    {
      "name": "Object_Red_0",
      "primitives": [
        {
          "attributes": {
            "NORMAL": 13,
            "POSITION": 12,
            "TEXCOORD_0": 14
          },
          "indices": 15,
          "material": 2,
          "mode": 4
        }
      ]
    }
  ],
  "nodes": [
    {
      "children": [
        1
      ],
      "name": "RootNode (gltf orientation matrix)",
      "rotation": [
        -0.70710678118654746,
        -0,
        -0,
        0.70710678118654757
      ]
    },
    {
      "children": [
        2
      ],
      "name": "RootNode (model correction matrix)"
    },
    {
      "children": [
        3
      ],
      "matrix": [
        1,
        0,
        0,
        0,
        0,
        0,
        1,
        0,
        0,
        -1,
        0,
        0,
        0,
        0,
        0,
        1
      ],
      "name": "1e147551070a4c248d9803dfcece2190.fbx"
    },
    {
      "children": [
        4,
        6,
        8,
        10
      ],
      "name": "RootNode"
    },
    {
      "children": [
        5
      ],
      "matrix": [
        1,
        0,
        0,
        0,
        0,
        2.2204460492503131e-16,
        -1,
        0,
        0,
        1,
        2.2204460492503131e-16,
        0,
        0,
        0,
        0,
        1
      ],
      "name": "default"
    },
    {
      "mesh": 0,
      "name": "default_Base_0"
    },
    {
      "children": [
        7
      ],
      "matrix": [
        1,
        0,
        0,
        0,
        0,
        2.2204460492503131e-16,
        -1,
        0,
        0,
        1,
        2.2204460492503131e-16,
        0,
        0,
        0,
        0,
        1
      ],
      "name": "default001"
    },
    {
      "mesh": 1,
      "name": "default001_Black_0"
    },
    {
      "children": [
        9
      ],
      "matrix": [
        1,
        0,
        0,
        0,
        0,
        2.2204460492503131e-16,
        -1,
        0,
        0,
        1,
        2.2204460492503131e-16,
        0,
        0,
        0,
        0,
        1
      ],
      "name": "default002"
    },
    {
      "mesh": 2,
      "name": "default002_Black_0"
    },
    {
      "children": [
        11
      ],
      "matrix": [
        1,
        0,
        0,
        0,
        0,
        2.2204460492503131e-16,
        -1,
        0,
        0,
        1,
        2.2204460492503131e-16,
        0,
        0,
        0,
        0,
        1
      ],
      "name": "Object"
    },
    {
      "mesh": 3,
      "name": "Object_Red_0"
    }
  ],
  "scene": 0,
  "scenes": [
    {
      "name": "OSG_Scene",
      "nodes": [
        0
      ]
    }
  ]
}

